<svg width="80" height="80" viewBox="0 0 133 142" fill="none" xmlns="http://www.w3.org/2000/svg">
<g filter="url(#filter0_b_56_259)">
<path d="M108.142 86.3228C119.549 79.2917 119.549 62.7083 108.142 55.6772L60.6953 26.43C48.7028 19.0376 33.25 27.6649 33.25 41.7527L33.25 100.247C33.25 114.335 48.7028 122.962 60.6952 115.57L108.142 86.3228Z" fill="url(#paint0_linear_56_259)"/>
</g>
<g filter="url(#filter1_bd_56_259)">
<path d="M108.142 86.3228C119.549 79.2917 119.549 62.7083 108.142 55.6772L60.6953 26.43C48.7028 19.0376 33.25 27.6649 33.25 41.7527L33.25 100.247C33.25 114.335 48.7028 122.962 60.6952 115.57L108.142 86.3228Z" fill="url(#paint1_linear_56_259)" fill-opacity="0.5" shape-rendering="crispEdges"/>
<path d="M107.88 85.8971C118.969 79.0614 118.969 62.9386 107.88 56.1029L60.4329 26.8556C48.7736 19.6686 33.75 28.0562 33.75 41.7527L33.75 100.247C33.75 113.944 48.7735 122.331 60.4329 115.144L107.88 85.8971Z" stroke="url(#paint2_linear_56_259)" shape-rendering="crispEdges"/>
</g>
<defs>
<filter id="filter0_b_56_259" x="13.25" y="3.72429" width="123.447" height="134.551" filterUnits="userSpaceOnUse" color-interpolation-filters="sRGB">
<feFlood flood-opacity="0" result="BackgroundImageFix"/>
<feGaussianBlur in="BackgroundImageFix" stdDeviation="10"/>
<feComposite in2="SourceAlpha" operator="in" result="effect1_backgroundBlur_56_259"/>
<feBlend mode="normal" in="SourceGraphic" in2="effect1_backgroundBlur_56_259" result="shape"/>
</filter>
<filter id="filter1_bd_56_259" x="23.25" y="13.7243" width="103.447" height="114.551" filterUnits="userSpaceOnUse" color-interpolation-filters="sRGB">
<feFlood flood-opacity="0" result="BackgroundImageFix"/>
<feGaussianBlur in="BackgroundImageFix" stdDeviation="5"/>
<feComposite in2="SourceAlpha" operator="in" result="effect1_backgroundBlur_56_259"/>
<feColorMatrix in="SourceAlpha" type="matrix" values="0 0 0 0 0 0 0 0 0 0 0 0 0 0 0 0 0 0 127 0" result="hardAlpha"/>
<feOffset dy="4"/>
<feGaussianBlur stdDeviation="2"/>
<feComposite in2="hardAlpha" operator="out"/>
<feColorMatrix type="matrix" values="0 0 0 0 0.477076 0 0 0 0 0.468136 0 0 0 0 0.468136 0 0 0 0.64 0"/>
<feBlend mode="normal" in2="effect1_backgroundBlur_56_259" result="effect2_dropShadow_56_259"/>
<feBlend mode="normal" in="SourceGraphic" in2="effect2_dropShadow_56_259" result="shape"/>
</filter>
<linearGradient id="paint0_linear_56_259" x1="46" y1="35.5" x2="83.5" y2="99.5" gradientUnits="userSpaceOnUse">
<stop stop-color="white" stop-opacity="0"/>
<stop offset="1" stop-color="#E9E5E5" stop-opacity="0.46"/>
</linearGradient>
<linearGradient id="paint1_linear_56_259" x1="46" y1="35.5" x2="83.5" y2="99.5" gradientUnits="userSpaceOnUse">
<stop stop-color="white" stop-opacity="0"/>
<stop offset="1" stop-color="white" stop-opacity="0.04"/>
</linearGradient>
<linearGradient id="paint2_linear_56_259" x1="88" y1="97" x2="39.5" y2="26" gradientUnits="userSpaceOnUse">
<stop stop-color="#D5D5D5" stop-opacity="0.16"/>
<stop offset="1" stop-color="white" stop-opacity="0.32"/>
</linearGradient>
</defs>
</svg>
